<svg xmlns="http://www.w3.org/2000/svg" xmlns:xlink="http://www.w3.org/1999/xlink" width="389.652" height="357.203" viewBox="0 0 389.652 357.203">
  <defs>
    <radialGradient id="radial-gradient" cx="0.496" cy="0.479" r="0.733" gradientTransform="translate(-0.424) scale(1.848 1)" gradientUnits="objectBoundingBox">
      <stop offset="0.01" stop-color="#2484c6" stop-opacity="0.302"/>
      <stop offset="1" stop-color="#2484c6"/>
    </radialGradient>
    <radialGradient id="radial-gradient-2" cx="3.903" cy="0.456" r="1.212" gradientTransform="translate(-1.672) scale(4.344 1)" gradientUnits="objectBoundingBox">
      <stop offset="0" stop-color="#2484c6" stop-opacity="0.302"/>
      <stop offset="1" stop-color="#2484c6"/>
    </radialGradient>
    <radialGradient id="radial-gradient-3" cx="-2.954" cy="0.456" r="1.211" gradientTransform="translate(-1.688) scale(4.376 1)" xlink:href="#radial-gradient-2"/>
    <radialGradient id="radial-gradient-4" cx="3.066" cy="0.445" r="1.511" gradientTransform="translate(-1.389) scale(3.777 1)" xlink:href="#radial-gradient-2"/>
    <radialGradient id="radial-gradient-5" cx="-2.103" cy="0.445" r="1.51" gradientTransform="translate(-1.392) scale(3.783 1)" xlink:href="#radial-gradient-2"/>
  </defs>
  <g id="Layer_2" data-name="Layer 2" transform="translate(-63.012 -67.814)">
    <path id="Path_25" data-name="Path 25" d="M172.83,378.19c-2.52-4.11-5.17-7.62-7-11.52-4.81-10.36-2.92-21.73,5-28.22,3.56-2.92,8.13-4.56,12.09-7,7.08-4.39,13.38-9.94,14.58-18.48.92-6.57,4.09-10.2,9.84-12.12,4.13-1.37,4.68-5.09,5.81-8.26a151.921,151.921,0,0,0,8.78-50.34,189.581,189.581,0,0,0-6.17-49.58,4,4,0,0,0-2.54-2.15c-3-.84-6.08-1.29-9.1-2-3.29-.79-4.62-3.25-5.14-6.35s.58-5.69,3.42-7c6.13-2.81,12.38-5.36,18.58-8,1.2-.51,2.42-1,3.58-1.45-4-5.35-8-10.21-11.36-15.49-6.51-10.16-10.39-21.29-10.32-33.47.12-19.45,9.27-33.45,26.59-42,10.51-5.18,21.75-8,33.49-6.58,18.1,2.19,34.16,8.55,44,25.17,7.06,11.94,7.58,24.81,4.06,38-3.37,12.61-10,23.38-19,32.8-.27.29-.48.63-1.11,1.46,3.49,1.33,6.74,2.49,9.93,3.81,3.93,1.64,7.86,3.28,11.68,5.16,3,1.46,5,3.63,4.42,7.42s-2.07,5.8-6.18,6.89a64.8,64.8,0,0,1-7.32,1.42c-2.11.3-3.1,1.15-3.67,3.4A189.26,189.26,0,0,0,294,238.9c-.19,20,2.9,39.49,10.58,58.08a8,8,0,0,0,3,3.23c2,1.31,4.48,2,6.24,3.48s3.44,3.47,3.64,5.41c1.09,10.44,7.31,17.1,15.6,22.39a41.2,41.2,0,0,0,6.31,3.39c11.68,4.8,15.49,17,11.91,28.06-1.71,5.29-5,10.07-7.81,15.41,1.32.61,3.35,1.55,5.39,2.47,4,1.8,6.33,4.52,5.71,9.24a35.708,35.708,0,0,0,0,6.54c.16,2.83-.11,5.32-2.87,7-.63.39-.86,1.8-.85,2.73,0,4.73-1.27,7.33-5.82,8.31-12,2.56-24,5.42-36.1,6.75-17.35,1.89-34.82,2.83-52.26,3.55-8.37.34-16.82-.51-25.21-1.25-12.42-1.08-24.85-2.24-37.2-4a209.367,209.367,0,0,1-23.12-5c-4.76-1.22-6-3.54-6-8.48a4.58,4.58,0,0,0-1.41-3.09,5.74,5.74,0,0,1-2.3-5.12,56.4,56.4,0,0,0,0-8.72c-.42-4.11,1.69-6.46,5-8.13C168.48,380.08,170.76,379.13,172.83,378.19Z" fill="url(#radial-gradient)"/>
    <path id="Path_26" data-name="Path 26" d="M97.83,140.64c9.73-1,17.73,10.14,13.8,18.78a194.156,194.156,0,0,0-9.3,25.42c-2.87,9.73-5,19.68-7.16,29.61-3.36,15.79-3.36,31.84-2.51,47.85a186.3,186.3,0,0,0,10.89,53.86c2.76,7.61,5.71,15.16,8.59,22.72,2.78,7.33-3.85,17-12,17.81-7.06.68-12.23-2.22-14.81-8.48-4.73-11.5-9.33-23.1-13.11-34.93a195.841,195.841,0,0,1-8-41.54c-1.44-15.47-1.83-31,.16-46.39,1.59-12.23,3.69-24.45,6.47-36.47a172.83,172.83,0,0,1,14.33-39.77C87.77,144.12,91.42,140.18,97.83,140.64Z" fill="url(#radial-gradient-2)"/>
    <path id="Path_27" data-name="Path 27" d="M452.65,250.62c.23,17.63-2.33,36.61-7,55.36a216.372,216.372,0,0,1-14.81,41.91c-5,10.39-15.38,10.71-21.86,6a13.56,13.56,0,0,1-4.72-16.05c5.67-14,11.29-28,14.2-42.79a295.4,295.4,0,0,0,4.83-35.78,195.092,195.092,0,0,0-4.18-54.87,230.426,230.426,0,0,0-12.17-37.9c-1.13-2.79-2-5.7-3-8.51-3-7.89,4.33-16.5,10.94-17.2,7.66-.81,11.59.21,15.9,8.53,7.34,14.19,12.06,29.39,15.64,44.9C451.27,215.51,452.76,230.32,452.65,250.62Z" fill="url(#radial-gradient-3)"/>
    <path id="Path_28" data-name="Path 28" d="M116.62,248.27c-.54-12.91,1.92-25.44,4.59-38a168.18,168.18,0,0,1,13.3-39.42c3.36-6.82,9.16-9.81,16.33-8.63,7.87,1.3,13.55,11.12,10.57,18.49-4.64,11.46-9.22,22.92-11.67,35.11-3.12,15.57-4.54,31.19-2.92,47.1,1.9,18.7,7.35,36.36,14.61,53.57,2.49,5.91.33,11.59-6,16.47-4.23,3.25-11.58,3.22-16-.48a19.92,19.92,0,0,1-5-6.24,161.879,161.879,0,0,1-14.55-46.15,294.329,294.329,0,0,1-3.3-31.86Z" fill="url(#radial-gradient-4)"/>
    <path id="Path_29" data-name="Path 29" d="M399.57,248.4a186.851,186.851,0,0,1-9.15,54.54c-2.51,7.89-5.67,15.59-8.95,23.2-3.14,7.29-9.22,10.21-17,8.84-7.33-1.28-12.63-11.21-10.14-18.33,4.11-11.74,8.68-23.39,11.68-35.42,3.88-15.59,5.27-31.64,2.81-47.66a313.128,313.128,0,0,0-6.39-31.38c-1.84-7.09-5-13.84-7.66-20.71-2.77-7.19,0-14.19,7.48-18.31,5.35-3,14-.93,17.31,5A146.894,146.894,0,0,1,388.42,188c5.11,13.57,7.7,27.81,9.95,42.06C399.32,236.09,399.2,242.28,399.57,248.4Z" fill="url(#radial-gradient-5)"/>
  </g>
</svg>
