<svg xmlns="http://www.w3.org/2000/svg" xmlns:xlink="http://www.w3.org/1999/xlink" width="1559.508" height="360" viewBox="0 0 1559.508 360">
  <defs>
    <linearGradient id="linear-gradient" x1="0.5" y1="0.571" x2="0.5" y2="-0.044" gradientUnits="objectBoundingBox">
      <stop offset="0" stop-color="#fff" stop-opacity="0"/>
      <stop offset="1" stop-color="#0ab1f0"/>
    </linearGradient>
    <linearGradient id="linear-gradient-2" x1="0.5" y1="0.543" x2="0.5" y2="-0.056" xlink:href="#linear-gradient"/>
    <linearGradient id="linear-gradient-3" x1="0.5" y1="0.762" x2="0.5" y2="-0.058" xlink:href="#linear-gradient"/>
    <linearGradient id="linear-gradient-4" x1="0.5" y1="0.762" x2="0.5" y2="-0.058" xlink:href="#linear-gradient"/>
    <linearGradient id="linear-gradient-5" x1="0.5" y1="0.543" x2="0.5" y2="-0.056" xlink:href="#linear-gradient"/>
    <linearGradient id="linear-gradient-6" x1="0.5" y1="0.573" x2="0.5" y2="-0.059" xlink:href="#linear-gradient"/>
    <linearGradient id="linear-gradient-7" x1="0.5" y1="0.762" x2="0.5" y2="-0.058" xlink:href="#linear-gradient"/>
    <linearGradient id="linear-gradient-8" x1="0.5" y1="0.62" x2="0.5" y2="-0.047" xlink:href="#linear-gradient"/>
    <linearGradient id="linear-gradient-9" x1="0.5" y1="0.762" x2="0.5" y2="-0.058" xlink:href="#linear-gradient"/>
    <linearGradient id="linear-gradient-10" x1="0.5" y1="0.988" x2="0.5" y2="0.015" gradientUnits="objectBoundingBox">
      <stop offset="0" stop-color="#529ed2"/>
      <stop offset="1" stop-color="#0ab1f0" stop-opacity="0.702"/>
    </linearGradient>
    <linearGradient id="linear-gradient-11" x1="0.5" y1="1.001" x2="0.5" y2="0.054" xlink:href="#linear-gradient-10"/>
    <linearGradient id="linear-gradient-12" x1="0.5" y1="0.984" x2="0.5" y2="-0.313" xlink:href="#linear-gradient-10"/>
    <linearGradient id="linear-gradient-13" x1="0.5" y1="0.984" x2="0.5" y2="-0.313" xlink:href="#linear-gradient-10"/>
    <linearGradient id="linear-gradient-14" x1="0.5" y1="1.001" x2="0.5" y2="0.054" xlink:href="#linear-gradient-10"/>
    <linearGradient id="linear-gradient-15" x1="0.5" y1="1.001" x2="0.5" y2="0.002" xlink:href="#linear-gradient-10"/>
    <linearGradient id="linear-gradient-16" x1="0.5" y1="0.984" x2="0.5" y2="-0.313" xlink:href="#linear-gradient-10"/>
    <linearGradient id="linear-gradient-17" x1="0.5" y1="0.987" x2="0.5" y2="-0.068" xlink:href="#linear-gradient-10"/>
    <radialGradient id="radial-gradient" cx="0.496" cy="0.479" r="0.733" gradientTransform="translate(-0.424) scale(1.848 1)" gradientUnits="objectBoundingBox">
      <stop offset="0.01" stop-color="#2484c6" stop-opacity="0.302"/>
      <stop offset="1" stop-color="#2484c6"/>
    </radialGradient>
    <radialGradient id="radial-gradient-2" cx="3.903" cy="0.456" r="1.212" gradientTransform="translate(-1.672) scale(4.344 1)" gradientUnits="objectBoundingBox">
      <stop offset="0" stop-color="#2484c6" stop-opacity="0.302"/>
      <stop offset="1" stop-color="#2484c6"/>
    </radialGradient>
    <radialGradient id="radial-gradient-3" cx="-2.954" cy="0.456" r="1.211" gradientTransform="translate(-1.688) scale(4.376 1)" xlink:href="#radial-gradient-2"/>
    <radialGradient id="radial-gradient-4" cx="3.066" cy="0.445" r="1.511" gradientTransform="translate(-1.389) scale(3.777 1)" xlink:href="#radial-gradient-2"/>
    <radialGradient id="radial-gradient-5" cx="-2.103" cy="0.445" r="1.51" gradientTransform="translate(-1.392) scale(3.783 1)" xlink:href="#radial-gradient-2"/>
  </defs>
  <g id="logo_banner" transform="translate(0.028 -0.054)">
    <g id="Layer_4" data-name="Layer 4">
      <path id="Path_1" data-name="Path 1" d="M657.12,395q-2.48-19.87-13-29.81t-31.26-9.94q-21,0-33.25,16.13t-12.3,43.22v19.13q0,28.07,12.62,44t33.89,15.91q38.35,0,43.3-39.85h13.32q-2.37,24-16.92,37.49t-39.7,13.54q-17.82,0-31.52-8.76t-21-24.87Q554,455,554,434.16v-20.3q.1-20.52,7.41-36.47t20.68-24.66q13.38-8.7,30.78-8.7,24.92,0,39.9,13.11T670.44,395Z" transform="translate(-63.04 -67.76)" fill="url(#linear-gradient)"/>
      <path id="Path_2" data-name="Path 2" d="M712.33,511.18H699.55v-165h12.78v79.6q4.41,12.68,13.59,20.14A32.5,32.5,0,0,0,747,453.39q14.28,0,20.78-7.63t6.61-23.2V346.18H787.2v76.27q-.1,21.06-9.2,31.55t-27.82,10.53a42.57,42.57,0,0,1-21.59-5.69,45.36,45.36,0,0,1-16.22-16.12Z" transform="translate(-63.04 -67.76)" fill="url(#linear-gradient-2)"/>
      <path id="Path_3" data-name="Path 3" d="M906.44,364.55l-8.06,6.12a40.351,40.351,0,0,0-14.34-12,41.8,41.8,0,0,0-18.2-3.76A36.05,36.05,0,0,0,837.32,368Q826,381.2,826,401v2.47h82.93v7.19q0,25-12.41,39.48t-33.56,14.45a44.64,44.64,0,0,1-25.14-7.68,51.659,51.659,0,0,1-18.1-21.11,68.28,68.28,0,0,1-6.5-30.19V401a63.481,63.481,0,0,1,6.66-29.28,49.74,49.74,0,0,1,18.64-20.35A50.449,50.449,0,0,1,865.3,344Q892.26,344,906.44,364.55Zm-19.87,78.53q9-10.53,9.56-27.29v-1.4H826.41q2.15,17.94,12.09,28.58a32.12,32.12,0,0,0,24.44,10.63Q877.53,453.6,886.57,443.08Z" transform="translate(-63.04 -67.76)" fill="url(#linear-gradient-3)"/>
      <path id="Path_4" data-name="Path 4" d="M949.79,367.34q-9.62,12.46-9.62,34.7v3.76q0,22.67,9.62,35.23t27,12.57q13.65,0,22.62-8.38t9.82-22h12.36q-.87,18.58-13.27,30T976.8,464.56q-15,0-26.26-7.2A46.31,46.31,0,0,1,933.3,437q-6-13.21-6-30.4v-3.87q0-26.85,13.38-42.75T976.91,344a49.08,49.08,0,0,1,21.75,5,41.74,41.74,0,0,1,16.28,13.7,36.441,36.441,0,0,1,6.66,19.39h-12.36a26.62,26.62,0,0,0-9.82-19.6q-9.09-7.57-22.51-7.58Q959.41,354.88,949.79,367.34Z" transform="translate(-63.04 -67.76)" fill="url(#linear-gradient-4)"/>
      <path id="Path_5" data-name="Path 5" d="M1121.93,346.18h15.36l-53.6,67.25,49.3,49h-16.22l-44.47-43.72-12.14-13.11V511.2h-12.89v-165h12.89v44.37l14.72,14.18Z" transform="translate(-63.04 -67.76)" fill="url(#linear-gradient-5)"/>
      <path id="Path_6" data-name="Path 6" d="M1158,502.59V346.18h13.22v68.54l-1.08,68.85,58-137.39h10.21l58.22,137.93-1.08-69.82V346.18h13.22V502.59h-17.62l-57.9-138-57.69,138Z" transform="translate(-63.04 -67.76)" fill="url(#linear-gradient-6)"/>
      <path id="Path_7" data-name="Path 7" d="M1432.49,346.18v1.29q-3.56,8.38-3.55,25.24v55q-.32,17.42-11.55,27.13t-30.67,9.72q-18.79,0-31.68-10.15t-12.9-24l12.9-.11q0,9.68,8.8,16.54t22.24,6.88q14.72,0,22.4-7.14t7.68-19.61V413.75h-23.31q-25.24,0-39.37-9.88T1339.35,377a30.45,30.45,0,0,1,10.37-23.63q10.37-9.35,27.12-9.35a52.88,52.88,0,0,1,22.18,4.78,44.919,44.919,0,0,1,17.25,13.59q.52-10.74,2.47-16.22Zm-73,15.68a20.81,20.81,0,0,0-7.25,16.22q0,11.93,10.85,18.75t30.08,7h23V378.3a36.61,36.61,0,0,0-14.77-16.65,43.2,43.2,0,0,0-23-6.23Q1366.74,355.42,1359.49,361.86Z" transform="translate(-63.04 -67.76)" fill="url(#linear-gradient-7)"/>
      <path id="Path_8" data-name="Path 8" d="M1470.3,492.17V462.41h-21.38V451.88h21.38V374.33q0-14.94,6-22.62t19.23-7.68q8.7,0,13.75,1.81l-.53,10.44a79.727,79.727,0,0,0-10.42-1.08q-8.17,0-11.66,4.74t-3.49,14.41v77.53h24.06v10.53h-24.06v29.76Z" transform="translate(-63.04 -67.76)" fill="url(#linear-gradient-8)"/>
      <path id="Path_9" data-name="Path 9" d="M1620,364.55l-8,6.12a40.52,40.52,0,0,0-14.34-12,41.881,41.881,0,0,0-18.21-3.76A36.05,36.05,0,0,0,1550.92,368q-11.34,13.15-11.33,32.93v2.47h82.93v7.19q0,25-12.41,39.48t-33.57,14.45a44.69,44.69,0,0,1-25.14-7.68,51.73,51.73,0,0,1-18.1-21.11,68.421,68.421,0,0,1-6.5-30.19V401a63.481,63.481,0,0,1,6.66-29.28,49.738,49.738,0,0,1,18.64-20.35,50.45,50.45,0,0,1,26.8-7.31Q1605.87,344,1620,364.55Zm-19.87,78.53q9-10.53,9.56-27.29v-1.4H1540q2.14,17.94,12.08,28.58a32.12,32.12,0,0,0,24.44,10.63q14.63,0,23.65-10.52Z" transform="translate(-63.04 -67.76)" fill="url(#linear-gradient-9)"/>
      <path id="Path_10" data-name="Path 10" d="M670.44,297.21q-2.7,24.71-17.68,37.81t-39.9,13.11q-17.4,0-30.78-8.7T561.4,314.78q-7.3-16-7.41-36.47V258q0-20.83,7.3-36.95t21-24.87q13.69-8.75,31.52-8.75,25.14,0,39.7,13.53t16.92,37.49H657.12q-4.95-39.85-43.3-39.85-21.27,0-33.89,15.91t-12.62,44v19.14q0,27.09,12.3,43.21T612.86,337q20.73,0,31.26-9.94t13-29.81Z" transform="translate(-63.04 -67.76)" fill="url(#linear-gradient-10)"/>
      <path id="Path_11" data-name="Path 11" d="M712.33,249.41a45.25,45.25,0,0,1,16.22-16.11,42.471,42.471,0,0,1,21.59-5.7q18.69,0,27.82,10.53t9.24,31.58V346H774.42V269.6q-.1-15.57-6.61-23.2T747,238.77a32.5,32.5,0,0,0-21.11,7.47q-9.18,7.47-13.59,20.14V346H699.55V181h12.78Z" transform="translate(-63.04 -67.76)" fill="url(#linear-gradient-11)"/>
      <path id="Path_12" data-name="Path 12" d="M865.3,348.13a50.44,50.44,0,0,1-26.8-7.3,49.77,49.77,0,0,1-18.64-20.36,63.461,63.461,0,0,1-6.66-29.27v-4.62a68.311,68.311,0,0,1,6.5-30.19,51.66,51.66,0,0,1,18.1-21.11,44.64,44.64,0,0,1,25.14-7.68q21.15,0,33.56,14.45t12.41,39.48v7.2H826v2.47q0,19.76,11.34,32.92a36.049,36.049,0,0,0,28.52,13.16,41.8,41.8,0,0,0,18.2-3.76,40.351,40.351,0,0,0,14.34-12l8.06,6.12Q892.27,348.13,865.3,348.13Zm-2.36-109.57a32.12,32.12,0,0,0-24.44,10.63q-9.94,10.63-12.09,28.58h69.72v-1.4q-.54-16.75-9.56-27.28T862.94,238.56Z" transform="translate(-63.04 -67.76)" fill="url(#linear-gradient-12)"/>
      <path id="Path_13" data-name="Path 13" d="M976.91,337.28q13.43,0,22.51-7.57a26.66,26.66,0,0,0,9.82-19.61h12.36a36.411,36.411,0,0,1-6.66,19.39,41.66,41.66,0,0,1-16.28,13.7,49.08,49.08,0,0,1-21.75,4.94q-22.87,0-36.25-15.9t-13.38-42.75v-3.87q0-17.19,6-30.4a46.31,46.31,0,0,1,17.24-20.41q11.22-7.2,26.26-7.2,19.13,0,31.53,11.39t13.27,30h-12.36q-.86-13.63-9.82-22t-22.62-8.38q-17.4,0-27,12.57t-9.62,35.23v3.76q0,22.25,9.62,34.7T976.91,337.28Z" transform="translate(-63.04 -67.76)" fill="url(#linear-gradient-13)"/>
      <path id="Path_14" data-name="Path 14" d="M1074.88,287.44l-14.72,14.18V346h-12.89V181h12.89V286.6l12.14-13.11,44.47-43.72H1133l-49.3,49,53.6,67.24h-15.36Z" transform="translate(-63.04 -67.76)" fill="url(#linear-gradient-14)"/>
      <path id="Path_15" data-name="Path 15" d="M1175.53,189.58l57.69,138,57.9-138h17.62V346h-13.22V277.9l1.08-69.83L1238.38,346h-10.21l-58-137.39,1.08,68.86V346H1158V189.58Z" transform="translate(-63.04 -67.76)" fill="url(#linear-gradient-15)"/>
      <path id="Path_16" data-name="Path 16" d="M1418.74,346q-1.93-5.48-2.47-16.22A44.919,44.919,0,0,1,1399,343.35a52.721,52.721,0,0,1-22.18,4.78q-16.75,0-27.12-9.35a30.44,30.44,0,0,1-10.37-23.63q0-17,14.13-26.85t39.37-9.89h23.31V265.2q0-12.47-7.68-19.6t-22.4-7.15q-13.42,0-22.24,6.88t-8.8,16.54l-12.9-.11q0-13.86,12.9-24t31.68-10.15q19.46,0,30.67,9.72t11.55,27.13v55q0,16.86,3.55,25.24V346Zm-40.39-9.24a43.11,43.11,0,0,0,23-6.23,36.61,36.61,0,0,0,14.77-16.65V288.3h-23q-19.23.21-30.08,7t-10.85,18.75a20.81,20.81,0,0,0,7.25,16.22q7.31,6.46,18.91,6.47Z" transform="translate(-63.04 -67.76)" fill="url(#linear-gradient-16)"/>
      <path id="Path_17" data-name="Path 17" d="M1483.19,200v29.75h24.06v10.53h-24.06v77.54q0,9.68,3.49,14.41t11.66,4.73a79.727,79.727,0,0,0,10.42-1.08l.53,10.44q-5,1.81-13.75,1.81-13.21,0-19.23-7.68t-6-22.61V240.28h-21.38V229.75h21.38V200Z" transform="translate(-63.04 -67.76)" fill="url(#linear-gradient-17)"/>
      <path id="Path_18" data-name="Path 18" d="M1578.9,348.13a50.44,50.44,0,0,1-26.8-7.3,49.77,49.77,0,0,1-18.64-20.36,63.456,63.456,0,0,1-6.66-29.27v-4.62a68.451,68.451,0,0,1,6.5-30.19,51.729,51.729,0,0,1,18.1-21.11,44.689,44.689,0,0,1,25.14-7.68q21.17,0,33.57,14.45t12.41,39.48v7.2h-82.93v2.47q0,19.76,11.33,32.92a36.05,36.05,0,0,0,28.52,13.16,41.88,41.88,0,0,0,18.21-3.76,40.518,40.518,0,0,0,14.34-12l8,6.12Q1605.86,348.13,1578.9,348.13Zm-2.36-109.57a32.12,32.12,0,0,0-24.44,10.63q-9.93,10.63-12.08,28.58h69.71v-1.4q-.54-16.75-9.56-27.28T1576.54,238.56Z" transform="translate(-63.04 -67.76)" fill="url(#linear-gradient-13)"/>
    </g>
    <g id="Layer_2" data-name="Layer 2">
      <path id="Path_19" data-name="Path 19" d="M172.83,378.19c-2.52-4.11-5.17-7.62-7-11.52-4.81-10.36-2.92-21.73,5-28.22,3.56-2.92,8.13-4.56,12.09-7,7.08-4.39,13.38-9.94,14.58-18.48.92-6.57,4.09-10.2,9.84-12.12,4.13-1.37,4.68-5.09,5.81-8.26a151.921,151.921,0,0,0,8.78-50.34,189.581,189.581,0,0,0-6.17-49.58,4,4,0,0,0-2.54-2.15c-3-.84-6.08-1.29-9.1-2-3.29-.79-4.62-3.25-5.14-6.35s.58-5.69,3.42-7c6.13-2.81,12.38-5.36,18.58-8,1.2-.51,2.42-1,3.58-1.45-4-5.35-8-10.21-11.36-15.49-6.51-10.16-10.39-21.29-10.32-33.47.12-19.45,9.27-33.45,26.59-42,10.51-5.18,21.75-8,33.49-6.58,18.1,2.19,34.16,8.55,44,25.17,7.06,11.94,7.58,24.81,4.06,38-3.37,12.61-10,23.38-19,32.8-.27.29-.48.63-1.11,1.46,3.49,1.33,6.74,2.49,9.93,3.81,3.93,1.64,7.86,3.28,11.68,5.16,3,1.46,5,3.63,4.42,7.42s-2.07,5.8-6.18,6.89a64.8,64.8,0,0,1-7.32,1.42c-2.11.3-3.1,1.15-3.67,3.4A189.26,189.26,0,0,0,294,238.9c-.19,20,2.9,39.49,10.58,58.08a8,8,0,0,0,3,3.23c2,1.31,4.48,2,6.24,3.48s3.44,3.47,3.64,5.41c1.09,10.44,7.31,17.1,15.6,22.39a41.2,41.2,0,0,0,6.31,3.39c11.68,4.8,15.49,17,11.91,28.06-1.71,5.29-5,10.07-7.81,15.41,1.32.61,3.35,1.55,5.39,2.47,4,1.8,6.33,4.52,5.71,9.24a35.708,35.708,0,0,0,0,6.54c.16,2.83-.11,5.32-2.87,7-.63.39-.86,1.8-.85,2.73,0,4.73-1.27,7.33-5.82,8.31-12,2.56-24,5.42-36.1,6.75-17.35,1.89-34.82,2.83-52.26,3.55-8.37.34-16.82-.51-25.21-1.25-12.42-1.08-24.85-2.24-37.2-4a209.367,209.367,0,0,1-23.12-5c-4.76-1.22-6-3.54-6-8.48a4.58,4.58,0,0,0-1.41-3.09,5.74,5.74,0,0,1-2.3-5.12,56.4,56.4,0,0,0,0-8.72c-.42-4.11,1.69-6.46,5-8.13C168.48,380.08,170.76,379.13,172.83,378.19Z" transform="translate(-63.04 -67.76)" fill="url(#radial-gradient)"/>
      <path id="Path_20" data-name="Path 20" d="M97.83,140.64c9.73-1,17.73,10.14,13.8,18.78a194.156,194.156,0,0,0-9.3,25.42c-2.87,9.73-5,19.68-7.16,29.61-3.36,15.79-3.36,31.84-2.51,47.85a186.3,186.3,0,0,0,10.89,53.86c2.76,7.61,5.71,15.16,8.59,22.72,2.78,7.33-3.85,17-12,17.81-7.06.68-12.23-2.22-14.81-8.48-4.73-11.5-9.33-23.1-13.11-34.93a195.841,195.841,0,0,1-8-41.54c-1.44-15.47-1.83-31,.16-46.39,1.59-12.23,3.69-24.45,6.47-36.47a172.83,172.83,0,0,1,14.33-39.77C87.77,144.12,91.42,140.18,97.83,140.64Z" transform="translate(-63.04 -67.76)" fill="url(#radial-gradient-2)"/>
      <path id="Path_21" data-name="Path 21" d="M452.65,250.62c.23,17.63-2.33,36.61-7,55.36a216.372,216.372,0,0,1-14.81,41.91c-5,10.39-15.38,10.71-21.86,6a13.56,13.56,0,0,1-4.72-16.05c5.67-14,11.29-28,14.2-42.79a295.4,295.4,0,0,0,4.83-35.78,195.092,195.092,0,0,0-4.18-54.87,230.426,230.426,0,0,0-12.17-37.9c-1.13-2.79-2-5.7-3-8.51-3-7.89,4.33-16.5,10.94-17.2,7.66-.81,11.59.21,15.9,8.53,7.34,14.19,12.06,29.39,15.64,44.9C451.27,215.51,452.76,230.32,452.65,250.62Z" transform="translate(-63.04 -67.76)" fill="url(#radial-gradient-3)"/>
      <path id="Path_22" data-name="Path 22" d="M116.62,248.27c-.54-12.91,1.92-25.44,4.59-38a168.18,168.18,0,0,1,13.3-39.42c3.36-6.82,9.16-9.81,16.33-8.63,7.87,1.3,13.55,11.12,10.57,18.49-4.64,11.46-9.22,22.92-11.67,35.11-3.12,15.57-4.54,31.19-2.92,47.1,1.9,18.7,7.35,36.36,14.61,53.57,2.49,5.91.33,11.59-6,16.47-4.23,3.25-11.58,3.22-16-.48a19.92,19.92,0,0,1-5-6.24,161.879,161.879,0,0,1-14.55-46.15,294.329,294.329,0,0,1-3.3-31.86Z" transform="translate(-63.04 -67.76)" fill="url(#radial-gradient-4)"/>
      <path id="Path_23" data-name="Path 23" d="M399.57,248.4a186.851,186.851,0,0,1-9.15,54.54c-2.51,7.89-5.67,15.59-8.95,23.2-3.14,7.29-9.22,10.21-17,8.84-7.33-1.28-12.63-11.21-10.14-18.33,4.11-11.74,8.68-23.39,11.68-35.42,3.88-15.59,5.27-31.64,2.81-47.66a313.128,313.128,0,0,0-6.39-31.38c-1.84-7.09-5-13.84-7.66-20.71-2.77-7.19,0-14.19,7.48-18.31,5.35-3,14-.93,17.31,5A146.894,146.894,0,0,1,388.42,188c5.11,13.57,7.7,27.81,9.95,42.06C399.32,236.09,399.2,242.28,399.57,248.4Z" transform="translate(-63.04 -67.76)" fill="url(#radial-gradient-5)"/>
    </g>
  </g>
</svg>
